<svg id="Layer_1" data-name="Layer 1" xmlns="http://www.w3.org/2000/svg" xmlns:xlink="http://www.w3.org/1999/xlink" viewBox="0 0 26 26"><defs><style>.cls-1{fill:url(#radial-gradient);}.cls-2{fill:#f8b013;}</style><radialGradient id="radial-gradient" cx="-905.19" cy="537.35" r="0.69" gradientTransform="matrix(26, 0, 0, -26, 23548, 13984)" gradientUnits="userSpaceOnUse"><stop offset="0" stop-color="#ffcf00"/><stop offset="1" stop-color="#f7ae15"/></radialGradient></defs><g id="Page-1"><g id="Catalog-pg1"><g id="products"><g id="line-1"><g id="product-card-hover"><g id="money"><circle id="Oval-Copy-3" class="cls-1" cx="13" cy="13" r="13"/><path id="Shape" class="cls-2" d="M17,7.1A9.9,9.9,0,1,0,26.9,17,9.92,9.92,0,0,0,17,7.1Zm0,18.64A8.74,8.74,0,1,1,25.74,17,8.75,8.75,0,0,1,17,25.74Z" transform="translate(-4 -4)"/><path id="Shape-2" data-name="Shape" class="cls-2" d="M17,9.3A7.7,7.7,0,1,0,24.7,17,7.73,7.73,0,0,0,17,9.3Zm0,14.22A6.52,6.52,0,1,1,23.52,17,6.52,6.52,0,0,1,17,23.52Z" transform="translate(-4 -4)"/></g></g></g></g></g></g></svg>